<svg width="307" height="280" viewBox="0 0 307 280" fill="none" xmlns="http://www.w3.org/2000/svg">
<path d="M-2.39611e-05 -1.90735e-05H65.2C87.8666 -1.90735e-05 104.4 5.33332 114.8 16C125.2 26.4 130.4 42.5333 130.4 64.4V81.6C130.4 110.667 120.8 129.067 101.6 136.8V137.6C112.267 140.8 119.733 147.333 124 157.2C128.533 167.067 130.8 180.267 130.8 196.8V246C130.8 254 131.067 260.533 131.6 265.6C132.133 270.4 133.467 275.2 135.6 280H90.8C89.2 275.467 88.1333 271.2 87.6 267.2C87.0666 263.2 86.8 256 86.8 245.6V194.4C86.8 181.6 84.6666 172.667 80.4 167.6C76.4 162.533 69.3333 160 59.2 160H44V280H-2.39611e-05V-1.90735e-05ZM60 120C68.8 120 75.3333 117.733 79.6 113.2C84.1333 108.667 86.4 101.067 86.4 90.4V68.8C86.4 58.6667 84.5333 51.3333 80.8 46.8C77.3333 42.2667 71.7333 40 64 40H44V120H60ZM161.328 -1.90735e-05H205.328V118L261.328 -1.90735e-05H305.328L252.928 102.8L306.128 280H260.128L222.928 155.2L205.328 190.8V280H161.328V-1.90735e-05Z" fill="white"/>
</svg>
